<svg xmlns="http://www.w3.org/2000/svg" viewBox="0 0 128 128">
	<defs>
		<linearGradient id="bg" x1="0" y1="0" x2="1" y2="1">
			<stop offset="0" stop-color="#fca5a5"/>
			<stop offset="0.5" stop-color="#ef4444"/>
			<stop offset="1" stop-color="#991b1b"/>
		</linearGradient>
	</defs>
	<circle cx="64" cy="64" r="64" fill="url(#bg)"/>
	<path d="M48 62 L36 82 L54 76 Z" fill="#fee2e2"/>
	<path d="M80 62 L92 82 L74 76 Z" fill="#fee2e2"/>
	<path d="M56 76 Q64 96 72 76 Z" fill="#fbbf24"/>
	<path d="M60 76 Q64 88 68 76 Z" fill="#fff7ed"/>
	<path d="M64 24 C52 40 48 54 48 64 C48 72 55 76 64 76 C73 76 80 72 80 64 C80 54 76 40 64 24 Z" fill="#ffffff"/>
	<circle cx="64" cy="50" r="9" fill="#38bdf8"/>
	<circle cx="64" cy="50" r="9" fill="none" stroke="#ffffff" stroke-width="3"/>
	<line x1="48" y1="64" x2="80" y2="64" stroke="#fee2e2" stroke-width="3" stroke-linecap="round"/>
	<path d="M86 42 L98 30 M98 30 L88 30 M98 30 L98 40" stroke="#fde68a" stroke-width="4" fill="none" stroke-linecap="round" stroke-linejoin="round"/>
</svg>
